<svg xmlns="http://www.w3.org/2000/svg" viewBox="0 0 181.2 217.44"><defs><style>.cls-1{fill:#abc8f8;}</style></defs><title>ico_teaching</title><g id="Layer_2" data-name="Layer 2"><g id="Layer_2-2" data-name="Layer 2"><path class="cls-1" d="M3.63,119.59H112.34v10.87a3.43,3.43,0,0,0,3.63,3.63h47.11a3.42,3.42,0,0,0,3.62-3.63V119.59h10.87A3.42,3.42,0,0,0,181.2,116V3.62A3.42,3.42,0,0,0,177.57,0H3.62A3.42,3.42,0,0,0,0,3.62V116a3.42,3.42,0,0,0,3.62,3.62Zm155.83,7.25H119.59V87A3.42,3.42,0,0,0,116,83.35H83.35a3.63,3.63,0,0,1,0-7.25h42L138.8,89.51a3.5,3.5,0,0,0,5.07,0L157.28,76.1h2.18ZM7.25,7.25H174V112.34h-7.24V72.48a3.42,3.42,0,0,0-3.63-3.62h-7.25a3.29,3.29,0,0,0-2.53,1.08l-12,12-12-12a3.31,3.31,0,0,0-2.54-1.08H83.35a10.87,10.87,0,0,0,0,21.74h29v21.74H7.25Z"/><path class="cls-1" d="M141.34,68.85a21.74,21.74,0,1,0-21.75-21.74A21.8,21.8,0,0,0,141.34,68.85Zm0-36.24a14.5,14.5,0,1,1-14.5,14.5A14.54,14.54,0,0,1,141.34,32.61Z"/><path class="cls-1" d="M112.34,213.81V174a3.42,3.42,0,0,0-3.62-3.63H105.1a18.62,18.62,0,0,0,3.62-10.87,18.12,18.12,0,0,0-36.24,0,18.62,18.62,0,0,0,3.62,10.87H72.48A3.42,3.42,0,0,0,68.86,174v39.86a3.42,3.42,0,0,0,3.62,3.63h36.24A3.42,3.42,0,0,0,112.34,213.81ZM90.6,148.58a10.88,10.88,0,1,1-10.87,10.87A10.68,10.68,0,0,1,90.6,148.58Zm14.5,61.61h-29V177.57h29Z"/><path class="cls-1" d="M54.36,213.81V174a3.42,3.42,0,0,0-3.62-3.63H47.11a18.56,18.56,0,0,0,3.63-10.87,18,18,0,0,0-18.12-18.12A18,18,0,0,0,14.5,159.45a18.62,18.62,0,0,0,3.62,10.87H14.5A3.43,3.43,0,0,0,10.87,174v39.86a3.43,3.43,0,0,0,3.63,3.63H50.74A3.42,3.42,0,0,0,54.36,213.81ZM32.62,148.58a10.88,10.88,0,0,1,0,21.75,10.88,10.88,0,0,1,0-21.75Zm14.49,61.61h-29V177.57h29Z"/><path class="cls-1" d="M170.33,213.81V174a3.43,3.43,0,0,0-3.63-3.63h-3.62a18.62,18.62,0,0,0,3.62-10.87,18.12,18.12,0,0,0-36.24,0,18.56,18.56,0,0,0,3.63,10.87h-3.63a3.42,3.42,0,0,0-3.62,3.63v39.86a3.42,3.42,0,0,0,3.62,3.63H166.7A3.43,3.43,0,0,0,170.33,213.81Zm-21.75-65.23a10.88,10.88,0,1,1-10.87,10.87A10.68,10.68,0,0,1,148.58,148.58Zm14.5,61.61h-29V177.57h29Z"/><path class="cls-1" d="M18.12,25.37H72.48v7.24H18.12Z"/><path class="cls-1" d="M50.74,47.11H97.85v7.25H50.74Z"/><path class="cls-1" d="M18.12,47.11H36.24v7.25H18.12Z"/><path class="cls-1" d="M83.35,25.37H90.6v7.24H83.35Z"/></g></g></svg>