<svg xmlns="http://www.w3.org/2000/svg" viewBox="0 0 185.71 170.08"><defs><style>.cls-1{fill:none;stroke:#abc8f8;stroke-miterlimit:10;stroke-width:6px;}</style></defs><title>icon_code</title><g id="Layer_2" data-name="Layer 2"><g id="Layer_2-2" data-name="Layer 2"><path class="cls-1" d="M3,3H182.71V139.73H3Z"/><path class="cls-1" d="M61.6,139.73v27.35"/><path class="cls-1" d="M124.11,139.73v27.35"/><path class="cls-1" d="M42.07,167.08H143.64"/><path class="cls-1" d="M182.71,116.29H3"/><path class="cls-1" d="M167.08,18.63H116.29"/><path class="cls-1" d="M108.48,18.63H89"/><path class="cls-1" d="M81.13,18.63H73.32"/><path class="cls-1" d="M65.51,18.63H57.69"/><path class="cls-1" d="M167.08,77.23H120.2"/><path class="cls-1" d="M112.39,77.23h-7.82"/><path class="cls-1" d="M96.76,77.23H89"/><path class="cls-1" d="M167.08,57.69H128"/><path class="cls-1" d="M120.2,57.69H73.32"/><path class="cls-1" d="M100.67,38.16H85"/><path class="cls-1" d="M167.08,38.16h-58.6"/><path class="cls-1" d="M77.23,38.16H18.63"/><path class="cls-1" d="M92.85,96.76h74.23"/><path class="cls-1" d="M63.55,71.37,77.23,85,63.55,98.71"/><path class="cls-1" d="M32.3,71.37,18.63,85,32.3,98.71"/><path class="cls-1" d="M40.11,104.57,55.74,65.51"/></g></g></svg>