<?xml version="1.0" encoding="utf-8"?>
<!-- Generator: Adobe Illustrator 23.0.2, SVG Export Plug-In . SVG Version: 6.00 Build 0)  -->
<svg version="1.1" id="Layer_1" xmlns="http://www.w3.org/2000/svg" xmlns:xlink="http://www.w3.org/1999/xlink" x="0px" y="0px"
	 viewBox="0 0 184.4 184.4" style="enable-background:new 0 0 184.4 184.4;" xml:space="preserve">
<style type="text/css">
	.st0{fill:#FFFFFF;}
	.st1{fill:#F2644D;}
	.st2{fill:#1F2571;}
</style>
<g>
	<rect x="147.5" y="3.1" class="st0" width="22" height="12.1"/>
	<polygon class="st0" points="184.1,35.5 0.2,35.5 0.2,145.8 23,145.8 21.7,164.9 33.9,179.1 51.2,179.9 62.7,168.7 63.5,145.8 
		184.1,145.8 	"/>
</g>
<title>icon_design</title>
<g id="Layer_2">
	<polygon class="st1" points="4,58 21.5,55.3 24,35 0,36.9 	"/>
	<polygon class="st1" points="101,122 111.7,101.7 128.5,122.8 	"/>
	<polygon class="st1" points="153.8,14.4 169.5,15.2 168.7,83.7 148.8,82.6 	"/>
</g>
<g>
	<g id="Layer_2-2">
		<path class="st2" d="M43,113.7c-1.7,0-3,1.4-3,3.1v15.4c-0.1,1.7,1.2,3.2,2.9,3.3s3.2-1.2,3.3-2.9c0-0.1,0-0.2,0-0.4v-15.4
			C46.2,115.1,44.8,113.7,43,113.7C43.1,113.7,43,113.7,43,113.7z"/>
		<path class="st2" d="M181.4,33.8h-9.2V3.1c0-1.7-1.4-3.1-3.1-3.1h-18.5c-1.7,0-3.1,1.4-3.1,3.1v30.7H3.1c-1.7,0-3.1,1.4-3.1,3.1
			v110.7c0,1.7,1.4,3.1,3.1,3.1c0,0,0,0,0,0h15.4v9.2c0.3,13.6,11.5,24.4,25.1,24.1c13.2-0.3,23.8-10.9,24.1-24.1v-9.2h113.7
			c1.7,0,3.1-1.4,3.1-3.1c0,0,0,0,0,0V36.9C184.4,35.2,183.1,33.8,181.4,33.8C181.4,33.8,181.4,33.8,181.4,33.8z M166,79.9h-12.3
			V18.4H166V79.9z M164.4,86.1l-4.6,10.6l-4.6-10.6H164.4z M153.7,6.2H166v6.2h-12.3V6.2z M17.2,40l-11,11V40H17.2z M21.5,44.3v11
			h-11L21.5,44.3z M61.5,159.9c-0.2,10.2-8.7,18.3-18.9,18c-9.9-0.2-17.8-8.2-18-18V123c0.2-10.2,8.7-18.3,18.9-18
			c9.9,0.2,17.8,8.2,18,18V159.9z M178.3,144.5H67.6V123c-0.3-13.6-11.5-24.4-25.1-24.1c-13.2,0.3-23.8,10.9-24.1,24.1v21.5H6.2v-83
			h18.4c1.7,0,3.1-1.4,3.1-3.1c0,0,0,0,0,0V40h119.9v43c0,0,0,0.1,0,0.1c0,0.3,0.1,0.7,0.2,1l0,0l9.2,21.6c0.7,1.6,2.5,2.3,4,1.6
			c0.7-0.3,1.3-0.9,1.6-1.6l9.2-21.5l0,0c0.1-0.3,0.2-0.7,0.2-1c0,0,0-0.1,0-0.1V40h6.1L178.3,144.5z"/>
		<path class="st2" d="M169.1,132.2h-6.1c-1.7,0.1-3,1.6-2.9,3.3c0.1,1.6,1.3,2.8,2.9,2.9h6.1c1.7-0.1,3-1.6,2.9-3.3
			C171.9,133.5,170.6,132.3,169.1,132.2z"/>
		<path class="st2" d="M150.6,132.2h-6.1c-1.7,0.1-3,1.6-2.9,3.3c0.1,1.6,1.3,2.8,2.9,2.9h6.1c1.7-0.1,3-1.6,2.9-3.3
			C153.4,133.5,152.2,132.3,150.6,132.2z"/>
		<path class="st2" d="M125.3,56.5c-1.1-1.3-3-1.5-4.3-0.5L89.2,82L60.5,56.1l0,0c-1.1-0.9-2.6-1-3.8-0.2l-40,27.7
			c-1.4,0.9-1.8,2.8-0.9,4.3c0,0,0,0,0,0.1c0.5,0.7,1.2,1.1,2,1.3c0.8,0.1,1.7-0.1,2.3-0.5l38-26.3l28.9,26l0,0c1.1,1,2.8,1.1,4,0.1
			l33.8-27.6c0.6-0.5,1-1.3,1.1-2.1C126.1,57.9,125.8,57.1,125.3,56.5L125.3,56.5z"/>
		<path class="st2" d="M116.3,96.7c-1-1.4-3-1.8-4.4-0.8c-0.3,0.2-0.6,0.5-0.8,0.8l-15.4,24.6c-0.9,1.4-0.5,3.3,1,4.2
			c0.5,0.3,1.1,0.5,1.6,0.5h30.7c1.7,0,3.1-1.4,3.1-3c0-0.6-0.2-1.2-0.5-1.7L116.3,96.7z M103.9,119.9l9.8-15.7l9.8,15.7H103.9z"/>
	</g>
</g>
</svg>
