<?xml version="1.0" encoding="utf-8"?>
<!-- Generator: Adobe Illustrator 23.0.2, SVG Export Plug-In . SVG Version: 6.00 Build 0)  -->
<svg version="1.1" id="Layer_1" xmlns="http://www.w3.org/2000/svg" xmlns:xlink="http://www.w3.org/1999/xlink" x="0px" y="0px"
	 viewBox="0 0 185.7 170.1" style="enable-background:new 0 0 185.7 170.1;" xml:space="preserve">
<style type="text/css">
	.st0{fill:#FFFFFF;}
	.st1{fill:#F2644D;}
	.st2{fill:none;stroke:#1F2571;stroke-width:6;stroke-miterlimit:10;}
</style>
<polygon class="st0" points="2.3,2.7 2.3,139.7 61.6,139.7 61.6,167.1 124.1,167.1 124.1,139.7 182.7,139.7 182.7,2.7 "/>
<title>icon_code</title>
<rect x="4.8" y="115.5" class="st1" width="177.9" height="24.2"/>
<g>
	<g id="Layer_2-2">
		<path class="st2" d="M3,3h179.7v136.7H3V3z"/>
		<path class="st2" d="M61.6,139.7v27.4"/>
		<path class="st2" d="M124.1,139.7v27.4"/>
		<path class="st2" d="M42.1,167.1h101.6"/>
		<path class="st2" d="M182.7,116.3H3"/>
		<path class="st2" d="M167.1,18.6h-50.8"/>
		<path class="st2" d="M108.5,18.6H89"/>
		<path class="st2" d="M81.1,18.6h-7.8"/>
		<path class="st2" d="M65.5,18.6h-7.8"/>
		<path class="st2" d="M167.1,77.2h-46.9"/>
		<path class="st2" d="M112.4,77.2h-7.8"/>
		<path class="st2" d="M96.8,77.2H89"/>
		<path class="st2" d="M167.1,57.7H128"/>
		<path class="st2" d="M120.2,57.7H73.3"/>
		<path class="st2" d="M100.7,38.2H85"/>
		<path class="st2" d="M167.1,38.2h-58.6"/>
		<path class="st2" d="M77.2,38.2H18.6"/>
		<path class="st2" d="M92.8,96.8h74.2"/>
		<path class="st2" d="M63.5,71.4L77.2,85L63.5,98.7"/>
		<path class="st2" d="M32.3,71.4L18.6,85l13.7,13.7"/>
		<path class="st2" d="M40.1,104.6l15.6-39.1"/>
	</g>
</g>
</svg>
