<?xml version="1.0" encoding="utf-8"?>
<!-- Generator: Adobe Illustrator 23.0.2, SVG Export Plug-In . SVG Version: 6.00 Build 0)  -->
<svg version="1.1" id="Layer_1" xmlns="http://www.w3.org/2000/svg" xmlns:xlink="http://www.w3.org/1999/xlink" x="0px" y="0px"
	 viewBox="0 0 181.2 217.4" style="enable-background:new 0 0 181.2 217.4;" xml:space="preserve">
<style type="text/css">
	.st0{fill:#FFFFFF;}
	.st1{fill:#F2644D;}
	.st2{fill:#1F2571;}
</style>
<rect x="131" y="173.9" class="st0" width="35.4" height="40"/>
<rect x="14.9" y="175.4" class="st0" width="35.6" height="37.7"/>
<circle class="st0" cx="32.3" cy="159.5" r="12.1"/>
<circle class="st0" cx="89.9" cy="158.9" r="12.1"/>
<circle class="st0" cx="148.1" cy="160" r="12.1"/>
<rect x="73.5" y="175.6" class="st1" width="34.9" height="37.9"/>
<rect x="4" y="3" class="st0" width="173" height="112"/>
<polygon class="st1" points="83.9,73 77,77 78.1,85 83.7,88.1 115.3,88.1 116.6,129.1 165.4,129.1 163.3,73.1 155.3,73 140.2,86 
	122.4,72.6 "/>
<title>ico_teaching</title>
<g>
	<g id="Layer_2-2">
		<path class="st2" d="M3.6,119.6h108.7v10.9c-0.1,1.9,1.3,3.5,3.2,3.6c0.1,0,0.3,0,0.4,0h47.1c1.9,0.1,3.5-1.3,3.6-3.2
			c0-0.1,0-0.3,0-0.4v-10.9h10.9c1.9,0.1,3.5-1.3,3.6-3.2c0-0.1,0-0.3,0-0.4V3.6c0.1-1.9-1.3-3.5-3.2-3.6c-0.1,0-0.3,0-0.4,0H3.6
			C1.7-0.1,0.1,1.3,0,3.2c0,0.1,0,0.3,0,0.4V116c-0.1,1.9,1.3,3.5,3.2,3.6C3.3,119.6,3.5,119.6,3.6,119.6L3.6,119.6z M159.5,126.8
			h-39.9V87c0.1-1.9-1.3-3.5-3.2-3.6c-0.1,0-0.3,0-0.4,0H83.3c-2-0.1-3.5-1.8-3.4-3.8c0.1-1.9,1.6-3.3,3.4-3.4h42l13.5,13.4
			c1.3,1.4,3.5,1.5,4.9,0.1c0,0,0.1-0.1,0.1-0.1l13.4-13.4h2.2L159.5,126.8z M7.3,7.3H174v105.1h-7.2V72.5c0.1-1.9-1.3-3.5-3.2-3.6
			c-0.1,0-0.3,0-0.4,0h-7.3c-1,0-1.9,0.4-2.5,1.1l-12,12l-12-12c-0.6-0.7-1.6-1.1-2.5-1.1H83.3c-6,0-10.9,4.9-10.9,10.9
			c0,6,4.9,10.9,10.9,10.9h29v21.7H7.3V7.3z"/>
		<path class="st2" d="M141.3,68.8c12,0,21.7-9.7,21.7-21.7s-9.7-21.7-21.8-21.7c-12,0-21.7,9.7-21.7,21.7
			C119.6,59.1,129.3,68.8,141.3,68.8z M141.3,32.6c8,0,14.5,6.5,14.5,14.5s-6.5,14.5-14.5,14.5s-14.5-6.5-14.5-14.5
			C126.9,39.1,133.3,32.6,141.3,32.6z"/>
		<path class="st2" d="M112.3,213.8V174c0.1-1.9-1.3-3.5-3.2-3.6c-0.1,0-0.3,0-0.4,0h-3.6c2.3-3.2,3.6-7,3.6-10.9
			c0-10-8.1-18.1-18.1-18.1c-10,0-18.1,8.1-18.1,18.1l0,0c0,3.9,1.3,7.7,3.6,10.9h-3.6c-1.9-0.1-3.5,1.3-3.6,3.2c0,0.1,0,0.3,0,0.4
			v39.9c-0.1,1.9,1.3,3.5,3.2,3.6c0.1,0,0.3,0,0.4,0h36.2c1.9,0.1,3.5-1.3,3.6-3.2C112.4,214.1,112.4,214,112.3,213.8z M90.6,148.6
			c6,0,10.9,4.9,10.9,10.9c0,6-4.9,10.9-10.9,10.9c-6,0-10.9-4.9-10.9-10.9c0,0,0,0,0,0c-0.1-5.9,4.6-10.8,10.5-10.9
			C90.3,148.6,90.5,148.6,90.6,148.6z M105.1,210.2h-29v-32.6h29V210.2z"/>
		<path class="st2" d="M54.4,213.8V174c0.1-1.9-1.3-3.5-3.2-3.6c-0.1,0-0.3,0-0.4,0h-3.6c2.3-3.1,3.6-7,3.6-10.9
			c0.1-9.9-7.9-18.1-17.9-18.1c-0.1,0-0.2,0-0.2,0c-9.9-0.1-18.1,7.9-18.1,17.9c0,0.1,0,0.1,0,0.2c0,3.9,1.3,7.7,3.6,10.9h-3.6
			c-1.9-0.1-3.5,1.3-3.6,3.2c0,0.2,0,0.3,0,0.5v39.9c-0.1,1.9,1.3,3.5,3.2,3.6c0.1,0,0.3,0,0.4,0h36.2c1.9,0.1,3.5-1.3,3.6-3.2
			C54.4,214.1,54.4,214,54.4,213.8z M32.6,148.6c6,0.2,10.7,5.2,10.5,11.2c-0.2,5.8-4.8,10.4-10.5,10.5c-6-0.2-10.7-5.2-10.5-11.2
			C22.2,153.4,26.9,148.8,32.6,148.6z M47.1,210.2h-29v-32.6h29V210.2z"/>
		<path class="st2" d="M170.3,213.8V174c0.1-1.9-1.3-3.5-3.2-3.6c-0.1,0-0.3,0-0.4,0h-3.6c2.3-3.2,3.6-7,3.6-10.9
			c0-10-8.1-18.1-18.1-18.1c-10,0-18.1,8.1-18.1,18.1l0,0c0,3.9,1.3,7.7,3.6,10.9h-3.6c-1.9-0.1-3.5,1.3-3.6,3.2c0,0.1,0,0.3,0,0.4
			v39.9c-0.1,1.9,1.3,3.5,3.2,3.6c0.1,0,0.3,0,0.4,0h36.2c1.9,0.1,3.5-1.3,3.6-3.2C170.3,214.1,170.3,214,170.3,213.8z M148.6,148.6
			c6,0,10.9,4.9,10.9,10.9s-4.9,10.9-10.9,10.9c-6,0-10.9-4.9-10.9-10.9c0,0,0,0,0,0c-0.1-5.9,4.6-10.8,10.5-10.9
			C148.3,148.6,148.5,148.6,148.6,148.6L148.6,148.6z M163.1,210.2h-29v-32.6h29V210.2z"/>
		<path class="st2" d="M18.1,25.4h54.4v7.2H18.1V25.4z"/>
		<path class="st2" d="M50.7,47.1h47.1v7.3H50.7V47.1z"/>
		<path class="st2" d="M18.1,47.1h18.1v7.3H18.1V47.1z"/>
		<path class="st2" d="M83.3,25.4h7.3v7.2h-7.3V25.4z"/>
	</g>
</g>
</svg>
