<svg xmlns="http://www.w3.org/2000/svg" viewBox="0 0 105.97 131.67"><defs><style>.cls-1{fill:#fff;}</style></defs><title>anchor</title><g id="Layer_2" data-name="Layer 2"><g id="Layer_2-2" data-name="Layer 2"><path class="cls-1" d="M105.48,75.82a.72.72,0,0,0-.94-.59A32.39,32.39,0,0,0,86.66,89.57a.72.72,0,0,0,.81,1.05l5-1.24a.73.73,0,0,1,.67,1.23l-1.74,1.67c-10.58,9.53-12.82,11.2-22.67,11.22a10.1,10.1,0,0,1-9.27-5.89A19.73,19.73,0,0,1,58.13,90c-.13-6.32-.27-12.64-.27-19q-.22-14.93-.42-29.85H72.05a6,6,0,1,0,0-6.29H57.36l-.12-8.46a13.56,13.56,0,1,0-8.51,0l-.12,8.46H33.87a6,6,0,1,0,0,6.29H48.53q-.2,14.93-.42,29.85c0,6.33-.13,12.65-.27,19a19.54,19.54,0,0,1-1.38,7.62,10.11,10.11,0,0,1-9.26,5.89c-9.86,0-12.1-1.69-22.68-11.22l-1.74-1.67a.73.73,0,0,1,.67-1.23l5.06,1.24a.72.72,0,0,0,.8-1.05A32.39,32.39,0,0,0,1.43,75.23a.71.71,0,0,0-.93.59C.06,79.14-1.18,91.41,3.23,98.28a.73.73,0,0,0,1.29-.11l1.55-3.89a.72.72,0,0,1,1.35,0C9,98.91,14.76,110.41,34.23,119l.05,0c.68.23,14.58,5.06,18,12.23a.82.82,0,0,0,1.46,0c3.41-7.17,17.3-12,18-12.23l.06,0C91.23,110.41,97,98.91,98.56,94.31a.73.73,0,0,1,1.36,0c.5,1.25,1.13,2.82,1.55,3.89a.72.72,0,0,0,1.28.12c4.4-6.88,3.16-19.15,2.73-22.47ZM53,19.25a5.7,5.7,0,1,1,5.69-5.7A5.7,5.7,0,0,1,53,19.25Z"/></g></g></svg>