<svg xmlns="http://www.w3.org/2000/svg" viewBox="0 0 184.44 184.44"><defs><style>.cls-1{fill:#abc8f8;}</style></defs><title>icon_design</title><g id="Layer_2" data-name="Layer 2"><g id="Layer_2-2" data-name="Layer 2"><path class="cls-1" d="M43,113.74A3.07,3.07,0,0,0,40,116.81v15.37a3.08,3.08,0,1,0,6.15,0V116.81A3.07,3.07,0,0,0,43,113.74Z"/><path class="cls-1" d="M181.36,33.81h-9.22V3.07A3.07,3.07,0,0,0,169.07,0H150.62a3.08,3.08,0,0,0-3.07,3.07V33.81H3.07A3.08,3.08,0,0,0,0,36.89V147.55a3.07,3.07,0,0,0,3.07,3.07H18.44v9.23a24.6,24.6,0,0,0,49.19,0v-9.23H181.36a3.07,3.07,0,0,0,3.08-3.07V36.89a3.07,3.07,0,0,0-3.08-3.08ZM166,79.92H153.7V18.44H166Zm-1.59,6.15-4.55,10.64-4.56-10.64ZM153.7,6.15H166V12.3H153.7ZM17.17,40l-11,11V40Zm4.35,4.35v11h-11Zm40,115.54a18.45,18.45,0,0,1-36.89,0V123a18.45,18.45,0,0,1,36.89,0Zm116.81-15.37H67.63V123a24.6,24.6,0,0,0-49.19,0v21.52H6.15v-83H24.59a3.07,3.07,0,0,0,3.08-3.07V40H147.55V83s0,.08,0,.12a3.32,3.32,0,0,0,.21,1v0L157,105.72a3.08,3.08,0,0,0,5.66,0l9.22-21.51v0a3.06,3.06,0,0,0,.21-1s0-.08,0-.12V40h6.15Z"/><path class="cls-1" d="M169.07,132.18h-6.15a3.08,3.08,0,0,0,0,6.15h6.15a3.08,3.08,0,0,0,0-6.15Z"/><path class="cls-1" d="M150.63,132.18h-6.15a3.08,3.08,0,0,0,0,6.15h6.15a3.08,3.08,0,0,0,0-6.15Z"/><path class="cls-1" d="M125.34,56.46A3.09,3.09,0,0,0,121,56L89.24,82,60.46,56.12h0a3.09,3.09,0,0,0-3.81-.24l-40,27.66a3.08,3.08,0,0,0-.84,4.32,3,3,0,0,0,2,1.28,3.12,3.12,0,0,0,2.33-.54l38-26.28,28.94,26h0a3.07,3.07,0,0,0,4,.1L124.9,60.79A3,3,0,0,0,126,58.71a3.11,3.11,0,0,0-.67-2.25Z"/><path class="cls-1" d="M116.34,96.74a3.18,3.18,0,0,0-5.22,0L95.75,121.33a3.07,3.07,0,0,0,2.62,4.7h30.74a3.06,3.06,0,0,0,2.6-4.7ZM103.9,119.89l9.84-15.72,9.84,15.72Z"/></g></g></svg>